<svg xmlns="http://www.w3.org/2000/svg" xmlns:xlink="http://www.w3.org/1999/xlink" viewBox="0 0 153.69 153.13"><defs><style>.cls-1{fill:url(#linear-gradient);}</style><linearGradient id="linear-gradient" x1="20.02" y1="30.75" x2="134.91" y2="131.98" gradientTransform="matrix(1, 0, -0.09, 1, 11.38, 0)" gradientUnits="userSpaceOnUse"><stop offset="0" stop-color="#287f71"/><stop offset="1" stop-color="#1e5c50"/></linearGradient></defs><title>Asset 1</title><g id="Layer_2" data-name="Layer 2"><g id="Layer_1-2" data-name="Layer 1"><path class="cls-1" d="M119.63,136.29l12.13,13.84-.91-.36a98.39,98.39,0,0,1-17.76-9h0a81.39,81.39,0,0,1-42.79,12.37c-2,0-3.92-.08-5.86-.22a73.57,73.57,0,0,1-10.94-1.66C20,143.53-2.84,113,.28,76.57,3.91,34.29,41.12,0,83.41,0c40.17,0,70.47,31,70.28,70.28,0,1.2,0,2.4-.1,3.62,0,.88-.1,1.78-.17,2.67-1.84,21.48-12.36,40.9-27.8,54.79l-9.81-12.58a65.51,65.51,0,0,0,21-42.21c.08-.89.14-1.78.16-2.67.09-1.84.07-3.65,0-5.44C135.51,39.18,112.36,16.6,82,16.6c-33.13,0-62.27,26.85-65.1,60C14.56,103.79,30.72,126.78,55,134.09a56.27,56.27,0,0,0,10.9,2.16q2.88.28,5.86.28a63.13,63.13,0,0,0,28.05-6.66L84.35,117.26a42.21,42.21,0,0,1-10.8,1.41,41,41,0,0,1-6.14-.46c-19.32-3-32.86-19.88-31.11-40.28C38.22,55.43,58,37.19,80.53,37.19c18.45,0,33,12.28,36.55,29.11h0a39.23,39.23,0,0,1,.69,11.63,44.28,44.28,0,0,1-12.67,27.13L80.82,73.9H104l-9.17-10L61.29,60.22l-3,35.66,10.35,8.47,2-23.9,27,30.79,11.45,13Z"/></g></g></svg>