<svg xmlns="http://www.w3.org/2000/svg" xmlns:xlink="http://www.w3.org/1999/xlink" viewBox="0 0 492.08 153.13"><defs><style>.cls-1{fill:url(#linear-gradient);}.cls-2{fill:#212121;}.cls-3{fill:#287f71;}</style><linearGradient id="linear-gradient" x1="20.02" y1="30.75" x2="134.91" y2="131.98" gradientTransform="matrix(1, 0, -0.09, 1, 11.38, 0)" gradientUnits="userSpaceOnUse"><stop offset="0" stop-color="#287f71"/><stop offset="1" stop-color="#1e5c50"/></linearGradient></defs><title>Asset 2</title><g id="Layer_2" data-name="Layer 2"><g id="Layer_1-2" data-name="Layer 1"><path class="cls-1" d="M119.63,136.29l12.13,13.84-.91-.36a98.39,98.39,0,0,1-17.76-9h0a81.39,81.39,0,0,1-42.79,12.37c-2,0-3.92-.08-5.86-.22a73.57,73.57,0,0,1-10.94-1.66C20,143.53-2.84,113,.28,76.57,3.91,34.29,41.12,0,83.41,0c40.17,0,70.47,31,70.28,70.28,0,1.2,0,2.4-.1,3.62,0,.88-.1,1.78-.17,2.67-1.84,21.48-12.36,40.9-27.8,54.79l-9.81-12.58a65.51,65.51,0,0,0,21-42.21c.08-.89.14-1.78.16-2.67.09-1.84.07-3.65,0-5.44C135.51,39.18,112.36,16.6,82,16.6c-33.13,0-62.27,26.85-65.1,60C14.56,103.79,30.72,126.78,55,134.09a56.27,56.27,0,0,0,10.9,2.16q2.88.28,5.86.28a63.13,63.13,0,0,0,28.05-6.66L84.35,117.26a42.21,42.21,0,0,1-10.8,1.41,41,41,0,0,1-6.14-.46c-19.32-3-32.86-19.88-31.11-40.28C38.22,55.43,58,37.19,80.53,37.19c18.45,0,33,12.28,36.55,29.11h0a39.23,39.23,0,0,1,.69,11.63,44.28,44.28,0,0,1-12.67,27.13L80.82,73.9H104l-9.17-10L61.29,60.22l-3,35.66,10.35,8.47,2-23.9,27,30.79,11.45,13Z"/><path class="cls-2" d="M207.31,84.11a24.22,24.22,0,0,1-12.77-3.33,21,21,0,0,1-8.32-9.61q-2.82-6.27-2.06-15.1a34,34,0,0,1,4.65-15.16,26.84,26.84,0,0,1,10-9.62A27.31,27.31,0,0,1,212.12,28a24,24,0,0,1,12.74,3.34,20.93,20.93,0,0,1,8.31,9.62q2.82,6.29,2.05,15.16a33.67,33.67,0,0,1-4.65,15.12,26.76,26.76,0,0,1-9.95,9.61A27.23,27.23,0,0,1,207.31,84.11Zm.85-9.93a14.21,14.21,0,0,0,7.62-2.09A15.34,15.34,0,0,0,221.27,66a25.83,25.83,0,0,0,2.63-9.88,24,24,0,0,0-.93-9.93A12,12,0,0,0,218.53,40a12.38,12.38,0,0,0-7.26-2.09,14.17,14.17,0,0,0-7.61,2.1,15.58,15.58,0,0,0-5.51,6.16,26.07,26.07,0,0,0-2.63,9.92,23.52,23.52,0,0,0,.94,9.86,12.11,12.11,0,0,0,4.46,6.14A12.32,12.32,0,0,0,208.16,74.18Zm-2.84-9.61h9.56l4.51,6.49,4.06,5.28,8.17,11.55H221.21l-5.53-7.77-2.78-4.33Z"/><path class="cls-2" d="M254.87,83.93a13.58,13.58,0,0,1-7.21-1.83,10.88,10.88,0,0,1-4.42-5.3,17.69,17.69,0,0,1-1-8.27l2.2-25.66h10.92l-2,23.72a8,8,0,0,0,1.45,6A6.46,6.46,0,0,0,260,74.69a8.73,8.73,0,0,0,4.17-1,7.92,7.92,0,0,0,3-2.91,10.56,10.56,0,0,0,1.4-4.68l2-23.24h11l-3.46,40.47H267.64l.73-10.19h.91a19.28,19.28,0,0,1-5.68,8A13.61,13.61,0,0,1,254.87,83.93Z"/><path class="cls-2" d="M305.33,84.15a20,20,0,0,1-10.47-2.57,15.39,15.39,0,0,1-6.3-7.25,22.61,22.61,0,0,1-1.5-11,25.3,25.3,0,0,1,3.36-11,20.24,20.24,0,0,1,18-10,20.26,20.26,0,0,1,7.44,1.32,15.45,15.45,0,0,1,5.77,3.9A15.74,15.74,0,0,1,325.13,54a24.71,24.71,0,0,1,.68,8.93l-.26,3H291.2l.59-6.89h29l-5.25,1.79a13.28,13.28,0,0,0-.52-5.46,6.9,6.9,0,0,0-2.61-3.57,7.93,7.93,0,0,0-4.63-1.27,9.19,9.19,0,0,0-4.92,1.29,9.3,9.3,0,0,0-3.32,3.52,12.7,12.7,0,0,0-1.49,5.13l-.41,4.84a12.37,12.37,0,0,0,.68,5.79,7.22,7.22,0,0,0,3,3.61,9.33,9.33,0,0,0,4.9,1.23,10.9,10.9,0,0,0,3.59-.57,8.3,8.3,0,0,0,2.85-1.65,8.06,8.06,0,0,0,1.94-2.66l9.81,1.43a15.86,15.86,0,0,1-4,6.14,18.55,18.55,0,0,1-6.54,4.07A24.15,24.15,0,0,1,305.33,84.15Z"/><path class="cls-2" d="M347.34,84.19a23.84,23.84,0,0,1-8.66-1.45,13.6,13.6,0,0,1-5.87-4.2,11.75,11.75,0,0,1-2.46-6.6l10.42-1.39a6.4,6.4,0,0,0,2.31,4.22,8.31,8.31,0,0,0,5.16,1.42,9.24,9.24,0,0,0,5-1.19,3.92,3.92,0,0,0,2.06-3,2.85,2.85,0,0,0-1.08-2.58,8.7,8.7,0,0,0-3.77-1.56l-6.88-1.4q-5.76-1.2-8.45-4.1a9.33,9.33,0,0,1-2.29-7.48,11.69,11.69,0,0,1,2.68-6.67,15.06,15.06,0,0,1,6.31-4.36,24.89,24.89,0,0,1,9.09-1.54,22.53,22.53,0,0,1,8.39,1.39,12.44,12.44,0,0,1,5.43,4,11.23,11.23,0,0,1,2.25,6L357.09,55a5.48,5.48,0,0,0-2-3.53,7,7,0,0,0-4.63-1.38,8.65,8.65,0,0,0-4.62,1.16,3.83,3.83,0,0,0-2,3,3,3,0,0,0,1,2.59,8,8,0,0,0,3.82,1.59l7.21,1.47q5.84,1.17,8.48,3.88a8.57,8.57,0,0,1,2.27,7.08,12,12,0,0,1-2.9,7,16.87,16.87,0,0,1-6.8,4.66A25.87,25.87,0,0,1,347.34,84.19Z"/><path class="cls-2" d="M397,42.87l-.71,8.4H371.67l.72-8.4Zm-17.8-9.93h10.92l-3.29,38.42a3.73,3.73,0,0,0,.62,2.84,3.57,3.57,0,0,0,2.8.9c.49,0,1.12,0,1.9-.13s1.37-.17,1.8-.24l.49,8.32a24.43,24.43,0,0,1-3.49.57c-1.21.11-2.37.16-3.5.16q-6.22,0-9.17-2.87t-2.47-8.42Z"/><path class="cls-2" d="M400.27,83.34l3.47-40.47h10.92l-3.47,40.47Zm9.38-45.71A5.62,5.62,0,0,1,405.48,36a4.85,4.85,0,0,1-1.43-4,5.78,5.78,0,0,1,2.12-4,6.57,6.57,0,0,1,4.41-1.65,5.62,5.62,0,0,1,4.19,1.65,4.87,4.87,0,0,1,1.41,4,5.87,5.87,0,0,1-2.1,4A6.57,6.57,0,0,1,409.65,37.63Z"/><path class="cls-2" d="M446.41,42.87l-.72,8.4H419.15l.71-8.4ZM423.58,83.34l3.78-44a14.33,14.33,0,0,1,2.26-7,11.83,11.83,0,0,1,5-4.18,16.66,16.66,0,0,1,6.93-1.4,29.8,29.8,0,0,1,4.51.32,24.85,24.85,0,0,1,2.93.56l-2.25,8.32c-.41-.09-.94-.19-1.6-.29a13.67,13.67,0,0,0-2-.15,4.87,4.87,0,0,0-3.58,1.14A5.25,5.25,0,0,0,438.22,40l-3.71,43.36Z"/><path class="cls-2" d="M448.43,98l2.69-8.35,2.1.29a8.75,8.75,0,0,0,3.53.14,4.59,4.59,0,0,0,2.57-1.37,6.43,6.43,0,0,0,1.49-3l.67-2.34L449.67,42.87h11.58l5,20.79a72.32,72.32,0,0,1,1.4,7.79q.49,3.9,1.13,8.08h-2.64q1.35-4.19,2.67-8.1t2.9-7.77l8.86-20.79h11.47L470.84,88.44a23.42,23.42,0,0,1-3.61,5.61,14.26,14.26,0,0,1-5,3.59,16.75,16.75,0,0,1-6.74,1.25,31.21,31.21,0,0,1-4-.24A21,21,0,0,1,448.43,98Z"/><path class="cls-3" d="M194.78,125.91a8.26,8.26,0,0,1-4.59-1.25,7.61,7.61,0,0,1-2.92-3.55,11.47,11.47,0,0,1-.7-5.48,12.69,12.69,0,0,1,1.65-5.5,9.67,9.67,0,0,1,3.54-3.56,9.4,9.4,0,0,1,4.78-1.25,9.09,9.09,0,0,1,3,.47,7,7,0,0,1,2.38,1.34,6.57,6.57,0,0,1,1.65,2.14,7.88,7.88,0,0,1,.73,2.87h-3.07a4.81,4.81,0,0,0-.53-1.73,4,4,0,0,0-1-1.26,4.47,4.47,0,0,0-1.48-.78,5.85,5.85,0,0,0-1.8-.27,6.11,6.11,0,0,0-3.23.89,6.74,6.74,0,0,0-2.38,2.57,10.19,10.19,0,0,0-1.12,4.07,9.11,9.11,0,0,0,.43,4.07,5.26,5.26,0,0,0,1.95,2.56,5.39,5.39,0,0,0,3.06.87,6.48,6.48,0,0,0,1.83-.26,5.7,5.7,0,0,0,1.61-.77,5.32,5.32,0,0,0,1.28-1.27,5.61,5.61,0,0,0,.83-1.72h3.08a8.45,8.45,0,0,1-1.18,2.75,9.09,9.09,0,0,1-2,2.16,8.47,8.47,0,0,1-2.62,1.4A9.54,9.54,0,0,1,194.78,125.91Z"/><path class="cls-3" d="M211.44,125.83a5.06,5.06,0,0,1-2.62-.64,3.86,3.86,0,0,1-1.65-1.9,6.45,6.45,0,0,1-.38-3.12l.8-9.38h2.94l-.77,9a3.43,3.43,0,0,0,.62,2.55,2.76,2.76,0,0,0,2.24.92,3.87,3.87,0,0,0,1.81-.43,3.49,3.49,0,0,0,1.35-1.27,4.59,4.59,0,0,0,.63-2l.75-8.74h3l-1.28,14.84H216l.3-3.64h.38a6.53,6.53,0,0,1-2.18,2.92A5.25,5.25,0,0,1,211.44,125.83Z"/><path class="cls-3" d="M222.62,125.63l1.28-14.84h2.94l-1.27,14.84Zm2.95-17.16a1.69,1.69,0,0,1-1.26-.52,1.54,1.54,0,0,1-.43-1.24,1.79,1.79,0,0,1,.65-1.25,2,2,0,0,1,1.34-.5,1.71,1.71,0,0,1,1.26.5,1.49,1.49,0,0,1,.43,1.25,1.82,1.82,0,0,1-.64,1.24A2,2,0,0,1,225.57,108.47Z"/><path class="cls-3" d="M237.22,110.79l-.21,2.39h-8.17l.2-2.39Zm-5.61-3.64h2.95l-1.24,14.49a1.77,1.77,0,0,0,.25,1.28,1.52,1.52,0,0,0,1.2.4,5.93,5.93,0,0,0,.64,0l.65-.09.21,2.37a7.26,7.26,0,0,1-1,.18c-.35,0-.7,0-1,0a4.13,4.13,0,0,1-3-1,3.43,3.43,0,0,1-.85-2.87Z"/><path class="cls-3" d="M238.71,125.63,240,110.79h3l-1.27,14.84Zm2.95-17.16a1.69,1.69,0,0,1-1.26-.52,1.54,1.54,0,0,1-.43-1.24,1.82,1.82,0,0,1,.64-1.25A2,2,0,0,1,242,105a1.71,1.71,0,0,1,1.26.5,1.49,1.49,0,0,1,.43,1.25A1.82,1.82,0,0,1,243,108,2,2,0,0,1,241.66,108.47Z"/><path class="cls-3" d="M249.72,125.63l-4.35-14.84h3.16l2.23,8.37c.24.89.44,1.79.6,2.69s.32,1.79.49,2.66H251c.33-.87.65-1.76,1-2.66s.65-1.79,1-2.69l3.65-8.37h3.13l-6.89,14.84Z"/><path class="cls-3" d="M264.94,125.94a5.84,5.84,0,0,1-2.53-.52,3.63,3.63,0,0,1-1.67-1.52,4.18,4.18,0,0,1-.46-2.48,4.33,4.33,0,0,1,.67-2.07,4.18,4.18,0,0,1,1.42-1.29,7.62,7.62,0,0,1,1.91-.71,18.73,18.73,0,0,1,2.14-.36l2.16-.27a3.33,3.33,0,0,0,1.23-.34.88.88,0,0,0,.45-.75v-.08a2.64,2.64,0,0,0-.2-1.39,1.9,1.9,0,0,0-.89-.88,3.47,3.47,0,0,0-1.56-.31,4.34,4.34,0,0,0-1.68.3,3.56,3.56,0,0,0-1.2.78,3,3,0,0,0-.7,1l-2.74-.55a5.67,5.67,0,0,1,1.52-2.23,6.34,6.34,0,0,1,2.26-1.29,8.73,8.73,0,0,1,2.71-.42,8.63,8.63,0,0,1,2,.24,5.1,5.1,0,0,1,1.82.82,3.64,3.64,0,0,1,1.26,1.57,5.21,5.21,0,0,1,.31,2.5l-.85,9.92h-2.85l.17-2h-.12a4.8,4.8,0,0,1-.95,1.11,4.88,4.88,0,0,1-1.52.89A5.92,5.92,0,0,1,264.94,125.94Zm.84-2.35a4.47,4.47,0,0,0,2.11-.47,3.76,3.76,0,0,0,1.4-1.24,3.45,3.45,0,0,0,.58-1.64l.16-1.87a1.4,1.4,0,0,1-.6.27,9,9,0,0,1-1,.22l-1.1.18-.95.12a8.57,8.57,0,0,0-1.53.36,3,3,0,0,0-1.16.71,1.93,1.93,0,0,0-.52,1.23,1.76,1.76,0,0,0,.26,1.17,2,2,0,0,0,.92.72A3.93,3.93,0,0,0,265.78,123.59Z"/><path class="cls-3" d="M283.92,110.79l-.2,2.39h-8.17l.2-2.39Zm-5.6-3.64h2.94L280,121.64a1.77,1.77,0,0,0,.26,1.28,1.5,1.5,0,0,0,1.2.4,5.6,5.6,0,0,0,.63,0l.66-.09.21,2.37a7.14,7.14,0,0,1-1,.18c-.35,0-.69,0-1,0a4.13,4.13,0,0,1-3-1,3.4,3.4,0,0,1-.85-2.87Z"/><path class="cls-3" d="M291.52,125.94a6.8,6.8,0,0,1-3.7-1,5.51,5.51,0,0,1-2.21-2.68,8.36,8.36,0,0,1-.51-4,9.55,9.55,0,0,1,1.19-4,7.29,7.29,0,0,1,2.62-2.72,7.41,7.41,0,0,1,6.2-.54,5.43,5.43,0,0,1,2,1.36,5.87,5.87,0,0,1,1.27,2.34,9.21,9.21,0,0,1,.25,3.37l-.09,1h-12l.19-2.21h10.45l-1.4.71a6.14,6.14,0,0,0-.23-2.4,3.24,3.24,0,0,0-1.16-1.62,3.42,3.42,0,0,0-2-.57,3.89,3.89,0,0,0-2.16.59,4.32,4.32,0,0,0-1.49,1.57,5.29,5.29,0,0,0-.66,2.19l-.12,1.44a5.39,5.39,0,0,0,.3,2.55A3.2,3.2,0,0,0,289.6,123a4,4,0,0,0,2.16.56,4.54,4.54,0,0,0,1.55-.25,3.43,3.43,0,0,0,2.06-1.91l2.73.51a5.93,5.93,0,0,1-1.38,2.13,6.6,6.6,0,0,1-2.27,1.43A8.08,8.08,0,0,1,291.52,125.94Z"/><path class="cls-3" d="M315.19,126a9.3,9.3,0,0,1-3.88-.73,5.35,5.35,0,0,1-2.43-2.1,5.74,5.74,0,0,1-.73-3.25h3.05a3.12,3.12,0,0,0,.52,1.89,3.31,3.31,0,0,0,1.5,1.16,5.78,5.78,0,0,0,2.19.39,6.31,6.31,0,0,0,2.32-.41,4.12,4.12,0,0,0,1.67-1.13,2.9,2.9,0,0,0,.72-1.69,2,2,0,0,0-.36-1.42,3.37,3.37,0,0,0-1.25-.94,12.4,12.4,0,0,0-1.94-.68l-2.27-.6a8.31,8.31,0,0,1-3.79-2,4.07,4.07,0,0,1-1.09-3.36,5.56,5.56,0,0,1,1.18-3,6.82,6.82,0,0,1,2.7-2,9.26,9.26,0,0,1,3.71-.72,8.31,8.31,0,0,1,3.6.73,5.3,5.3,0,0,1,2.28,2,5,5,0,0,1,.69,3h-3a2.68,2.68,0,0,0-1.07-2.25,4.51,4.51,0,0,0-2.81-.81,5.71,5.71,0,0,0-2.14.38,3.77,3.77,0,0,0-1.49,1.06,2.74,2.74,0,0,0-.63,1.53,2,2,0,0,0,.41,1.48,3.65,3.65,0,0,0,1.3.93,13,13,0,0,0,1.69.59l1.95.51a13.77,13.77,0,0,1,2.05.7,6.91,6.91,0,0,1,1.77,1.09,4.25,4.25,0,0,1,1.19,1.59,4.68,4.68,0,0,1,.3,2.24,5.89,5.89,0,0,1-1.14,3.05,6.66,6.66,0,0,1-2.73,2.08A10.16,10.16,0,0,1,315.19,126Z"/><path class="cls-3" d="M331,125.83a5.11,5.11,0,0,1-2.62-.64,3.89,3.89,0,0,1-1.64-1.9,6.45,6.45,0,0,1-.38-3.12l.8-9.38h2.94l-.77,9a3.39,3.39,0,0,0,.62,2.55,2.76,2.76,0,0,0,2.24.92,3.9,3.9,0,0,0,1.81-.43,3.49,3.49,0,0,0,1.35-1.27,4.59,4.59,0,0,0,.63-2l.75-8.74h2.94l-1.27,14.84h-2.82l.3-3.64h.37a6.45,6.45,0,0,1-2.17,2.92A5.28,5.28,0,0,1,331,125.83Z"/><path class="cls-3" d="M348.42,125.94a6.43,6.43,0,0,1-3.57-1,5.74,5.74,0,0,1-2.2-2.69,8.45,8.45,0,0,1-.52-4,9.47,9.47,0,0,1,1.21-4,7.54,7.54,0,0,1,8.6-3.34,5.57,5.57,0,0,1,1.78.92,4.62,4.62,0,0,1,1.26,1.45,5.26,5.26,0,0,1,.64,1.91l-2.85.53a3.43,3.43,0,0,0-.35-1.08,2.85,2.85,0,0,0-.67-.83,3,3,0,0,0-1-.54,4,4,0,0,0-1.24-.19,3.7,3.7,0,0,0-2.28.7,4.68,4.68,0,0,0-1.49,1.86,8.12,8.12,0,0,0-.67,2.66,7.14,7.14,0,0,0,.22,2.62,3.78,3.78,0,0,0,1.16,1.86,3.26,3.26,0,0,0,2.17.69,4.06,4.06,0,0,0,1.29-.19,3.61,3.61,0,0,0,1.07-.55,3.9,3.9,0,0,0,.81-.86,4.39,4.39,0,0,0,.54-1.11l2.76.51a6.45,6.45,0,0,1-1,2,7.11,7.11,0,0,1-1.52,1.48,7,7,0,0,1-1.95.94A8,8,0,0,1,348.42,125.94Z"/><path class="cls-3" d="M364,125.94a6.43,6.43,0,0,1-3.57-1,5.74,5.74,0,0,1-2.2-2.69,8.45,8.45,0,0,1-.53-4,9.62,9.62,0,0,1,1.22-4,7.38,7.38,0,0,1,2.66-2.69,7.27,7.27,0,0,1,3.73-1,7.38,7.38,0,0,1,2.21.31,5.67,5.67,0,0,1,1.78.92,4.62,4.62,0,0,1,1.26,1.45,5.46,5.46,0,0,1,.64,1.91l-2.86.53a3.18,3.18,0,0,0-.34-1.08,2.88,2.88,0,0,0-1.63-1.37,4,4,0,0,0-1.24-.19,3.7,3.7,0,0,0-2.28.7,4.68,4.68,0,0,0-1.49,1.86,7.88,7.88,0,0,0-.67,2.66,7.14,7.14,0,0,0,.22,2.62,3.78,3.78,0,0,0,1.16,1.86,3.26,3.26,0,0,0,2.17.69,4.15,4.15,0,0,0,1.29-.19,3.44,3.44,0,0,0,1.06-.55,3.72,3.72,0,0,0,.82-.86,4.39,4.39,0,0,0,.54-1.11l2.75.51a6,6,0,0,1-1,2,6.84,6.84,0,0,1-1.51,1.48,7,7,0,0,1-1.95.94A8.1,8.1,0,0,1,364,125.94Z"/><path class="cls-3" d="M379.79,125.94a6.84,6.84,0,0,1-3.71-1,5.62,5.62,0,0,1-2.21-2.68,8.61,8.61,0,0,1-.51-4,9.7,9.7,0,0,1,1.19-4,7.39,7.39,0,0,1,2.63-2.72,7.39,7.39,0,0,1,6.19-.54,5.35,5.35,0,0,1,2,1.36,5.75,5.75,0,0,1,1.27,2.34,9,9,0,0,1,.25,3.37l-.08,1h-12l.19-2.21H385.5l-1.41.71a6,6,0,0,0-.23-2.4,3.16,3.16,0,0,0-1.15-1.62,3.44,3.44,0,0,0-2-.57,3.92,3.92,0,0,0-2.17.59,4.37,4.37,0,0,0-1.48,1.57,5.29,5.29,0,0,0-.66,2.19l-.12,1.44a5.53,5.53,0,0,0,.29,2.55,3.3,3.3,0,0,0,1.33,1.62,4,4,0,0,0,2.17.56,4.54,4.54,0,0,0,1.55-.25,3.43,3.43,0,0,0,2.06-1.91l2.72.51A5.67,5.67,0,0,1,385,124a6.56,6.56,0,0,1-2.26,1.43A8.12,8.12,0,0,1,379.79,125.94Z"/><path class="cls-3" d="M394.67,126a8,8,0,0,1-2.88-.48,4.22,4.22,0,0,1-2.81-3.75l2.84-.46a2.5,2.5,0,0,0,.94,1.74,3.52,3.52,0,0,0,2.11.57,4.11,4.11,0,0,0,2.3-.58,1.88,1.88,0,0,0,.95-1.42,1.39,1.39,0,0,0-.43-1.19,3.13,3.13,0,0,0-1.5-.69l-2.46-.55a5.55,5.55,0,0,1-3-1.5A3.31,3.31,0,0,1,390,115a4.08,4.08,0,0,1,.93-2.33,5.29,5.29,0,0,1,2.15-1.54,7.82,7.82,0,0,1,3-.55,6.92,6.92,0,0,1,2.76.49,4.07,4.07,0,0,1,1.78,1.38,4.38,4.38,0,0,1,.79,2.07l-2.71.45a2.51,2.51,0,0,0-.8-1.46,2.77,2.77,0,0,0-2-.62,3.72,3.72,0,0,0-2.07.55,1.86,1.86,0,0,0-.92,1.41,1.38,1.38,0,0,0,.45,1.2,3.86,3.86,0,0,0,1.66.72l2.36.54a5.6,5.6,0,0,1,3,1.47,3.19,3.19,0,0,1,.78,2.56,4.2,4.2,0,0,1-1,2.4,5.72,5.72,0,0,1-2.29,1.63A8.38,8.38,0,0,1,394.67,126Z"/><path class="cls-3" d="M409.2,126a8,8,0,0,1-2.88-.48,4.22,4.22,0,0,1-2.81-3.75l2.84-.46a2.5,2.5,0,0,0,.94,1.74,3.52,3.52,0,0,0,2.11.57,4.11,4.11,0,0,0,2.3-.58,1.91,1.91,0,0,0,.95-1.42,1.39,1.39,0,0,0-.43-1.19,3.13,3.13,0,0,0-1.5-.69l-2.46-.55a5.55,5.55,0,0,1-3-1.5,3.35,3.35,0,0,1-.8-2.64,4.16,4.16,0,0,1,.94-2.33,5.29,5.29,0,0,1,2.15-1.54,7.82,7.82,0,0,1,3-.55,6.92,6.92,0,0,1,2.76.49,4.07,4.07,0,0,1,1.78,1.38,4.38,4.38,0,0,1,.79,2.07l-2.71.45a2.51,2.51,0,0,0-.8-1.46,2.77,2.77,0,0,0-2-.62,3.72,3.72,0,0,0-2.07.55,1.86,1.86,0,0,0-.92,1.41,1.38,1.38,0,0,0,.45,1.2,3.86,3.86,0,0,0,1.66.72l2.36.54a5.6,5.6,0,0,1,3,1.47,3.19,3.19,0,0,1,.78,2.56,4.2,4.2,0,0,1-1,2.4,5.72,5.72,0,0,1-2.29,1.63A8.38,8.38,0,0,1,409.2,126Z"/></g></g></svg>